<svg xmlns="http://www.w3.org/2000/svg" width="32" height="32" viewBox="0 0 32 32" fill="none">
  <!-- Paper airplane cursor — nose points upper-left for cursor use -->
  <g transform="translate(2,1)">
    <!-- Main outer shape: top edge, right tip, bottom-right wing, bottom notch, bottom-left wing back to nose -->
    <path d="M1 1 L27 11 L16 28 L14 21 L6 25 L10 16 Z"
          stroke="#111111"
          stroke-width="2.2"
          stroke-linecap="round"
          stroke-linejoin="round"
          fill="#ffffff"/>

    <!-- Center fold line from nose to right tip area -->
    <path d="M1 1 L14 21"
          stroke="#111111"
          stroke-width="2"
          stroke-linecap="round"/>

    <!-- Inner fold from center to bottom-right -->
    <path d="M14 21 L27 11"
          stroke="#111111"
          stroke-width="1.6"
          stroke-linecap="round"/>

    <!-- Bottom wing fold -->
    <path d="M14 21 L16 28"
          stroke="#111111"
          stroke-width="1.8"
          stroke-linecap="round"/>

    <!-- Diagonal hatching on lower-right wing panel -->
    <clipPath id="lowerWing">
      <path d="M14 21 L27 11 L16 28 Z"/>
    </clipPath>
    <g clip-path="url(#lowerWing)">
      <line x1="16" y1="14" x2="13" y2="25" stroke="#111111" stroke-width="1.1" stroke-linecap="round"/>
      <line x1="18" y1="13" x2="14.5" y2="26" stroke="#111111" stroke-width="1.1" stroke-linecap="round"/>
      <line x1="20" y1="12" x2="16" y2="27" stroke="#111111" stroke-width="1.1" stroke-linecap="round"/>
      <line x1="22" y1="11.5" x2="17.5" y2="27" stroke="#111111" stroke-width="1.1" stroke-linecap="round"/>
      <line x1="24" y1="11" x2="19" y2="27" stroke="#111111" stroke-width="1.1" stroke-linecap="round"/>
      <line x1="26" y1="10.5" x2="20.5" y2="27" stroke="#111111" stroke-width="1.1" stroke-linecap="round"/>
    </g>

    <!-- Diagonal hatching on lower-left wing panel -->
    <clipPath id="lowerLeftWing">
      <path d="M10 16 L14 21 L6 25 Z"/>
    </clipPath>
    <g clip-path="url(#lowerLeftWing)">
      <line x1="7" y1="19" x2="11" y2="25" stroke="#111111" stroke-width="1.1" stroke-linecap="round"/>
      <line x1="8.5" y1="18" x2="12.5" y2="25" stroke="#111111" stroke-width="1.1" stroke-linecap="round"/>
      <line x1="10" y1="17" x2="14" y2="24" stroke="#111111" stroke-width="1.1" stroke-linecap="round"/>
      <line x1="11.5" y1="17" x2="14" y2="22" stroke="#111111" stroke-width="1.1" stroke-linecap="round"/>
    </g>
  </g>
</svg>
