<svg xmlns="http://www.w3.org/2000/svg" viewBox="0 0 960 440" width="960" height="440" font-family="system-ui, -apple-system, sans-serif">
  <defs>
    <pattern id="ut-dots" x="0" y="0" width="18" height="18" patternUnits="userSpaceOnUse">
      <circle cx="1" cy="1" r="0.7" fill="#d8d8d2"/>
    </pattern>
    <marker id="ut-arr" markerWidth="8" markerHeight="6" refX="7" refY="3" orient="auto">
      <polygon points="0 0,8 3,0 6" fill="#444"/>
    </marker>
    <style>.hand { font-family: 'Kalam', 'Bradley Hand', 'Chalkboard SE', cursive; }</style>
  </defs>

  <rect width="960" height="440" fill="#fafaf5"/>
  <rect width="960" height="440" fill="url(#ut-dots)"/>

  <!-- Title block -->
  <text x="24" y="30" font-size="15" font-weight="700" fill="#111">Message Viewer — 5 apps, 1 conversation</text>
  <text x="24" y="48" font-size="10" fill="#777">FigJam • day-in-the-life audit • Feb 2025</text>

  <!-- Left zone header -->
  <text x="160" y="80" class="hand" font-size="11" font-weight="700" fill="#888" text-anchor="middle" letter-spacing="1">FRAGMENTED SOURCES</text>

  <!-- Source: Slack (yellow, tilt left) -->
  <g transform="rotate(-4 90 112)">
    <rect x="40" y="90" width="100" height="45" fill="#fff3a0" stroke="#d4b81e" stroke-width="1"/>
    <text x="90" y="110" class="hand" font-size="12" fill="#222" text-anchor="middle">Slack</text>
    <text x="90" y="126" class="hand" font-size="9" fill="#8a7a00" text-anchor="middle">channels + DMs</text>
  </g>

  <!-- Source: iMessage (green, tilt right) -->
  <g transform="rotate(3 275 122)">
    <rect x="225" y="100" width="100" height="45" fill="#c9ebc4" stroke="#6ca866" stroke-width="1"/>
    <text x="275" y="120" class="hand" font-size="12" fill="#222" text-anchor="middle">iMessage</text>
    <text x="275" y="136" class="hand" font-size="9" fill="#3a6a38" text-anchor="middle">blue + green bubbles</text>
  </g>

  <!-- Source: Teams (purple, tilt left) -->
  <g transform="rotate(-2 110 222)">
    <rect x="60" y="200" width="100" height="45" fill="#e8d9f5" stroke="#8a68b2" stroke-width="1"/>
    <text x="110" y="220" class="hand" font-size="12" fill="#222" text-anchor="middle">Teams</text>
    <text x="110" y="236" class="hand" font-size="9" fill="#5a3a82" text-anchor="middle">work chat</text>
  </g>

  <!-- Source: Bloomberg (blue, tilt right) -->
  <g transform="rotate(4 275 352)">
    <rect x="225" y="330" width="100" height="45" fill="#c8dff5" stroke="#6f9bc4" stroke-width="1"/>
    <text x="275" y="350" class="hand" font-size="12" fill="#222" text-anchor="middle">Bloomberg</text>
    <text x="275" y="366" class="hand" font-size="9" fill="#3a6a99" text-anchor="middle">terminal alerts</text>
  </g>

  <!-- Source: Voicemail (pink, tilt left) -->
  <g transform="rotate(-3 130 337)">
    <rect x="80" y="315" width="100" height="45" fill="#ffd6d9" stroke="#d88a8e" stroke-width="1"/>
    <text x="130" y="335" class="hand" font-size="12" fill="#222" text-anchor="middle">Voicemail</text>
    <text x="130" y="351" class="hand" font-size="9" fill="#9a3a3a" text-anchor="middle">transcribed</text>
  </g>

  <!-- Red margin annotation bottom-left -->
  <text x="30" y="395" class="hand" font-size="11" fill="#c00" font-weight="700">&lt;&lt; user checks all 5 every hour &gt;&gt;</text>

  <!-- Converging dashed arrows from sources to normalize -->
  <g fill="none" stroke="#888" stroke-width="1.1" stroke-dasharray="4,3">
    <path d="M 145 112 Q 250 150 348 198"/>
    <path d="M 325 123 Q 345 160 352 195"/>
    <path d="M 165 222 Q 250 225 348 215"/>
    <path d="M 325 352 Q 350 300 352 240"/>
    <path d="M 185 337 Q 270 290 346 232"/>
  </g>

  <!-- Normalize + merge funnel sticky (purple, slight tilt) -->
  <g transform="rotate(-1.2 410 215)">
    <rect x="355" y="180" width="110" height="70" fill="#e8d9f5" stroke="#8a68b2" stroke-width="1.2"/>
    <text x="410" y="205" class="hand" font-size="12" fill="#222" text-anchor="middle">normalize</text>
    <text x="410" y="222" class="hand" font-size="12" fill="#222" text-anchor="middle">+ merge</text>
    <text x="410" y="242" class="hand" font-size="9" fill="#5a3a82" text-anchor="middle">schema map + dedupe</text>
  </g>

  <!-- Arrow from funnel to timeline -->
  <path d="M 467 215 Q 500 215 535 215" fill="none" stroke="#444" stroke-width="1.6" marker-end="url(#ut-arr)"/>

  <!-- Right zone header -->
  <text x="720" y="80" class="hand" font-size="11" font-weight="700" fill="#888" text-anchor="middle" letter-spacing="1">UNIFIED TIMELINE</text>

  <!-- Timeline spine -->
  <line x1="565" y1="100" x2="565" y2="380" stroke="#444" stroke-width="1.2"/>

  <!-- Timeline entry 1: Slack -->
  <circle cx="565" cy="115" r="4" fill="#d4b81e"/>
  <g transform="rotate(0.8 690 115)">
    <rect x="580" y="100" width="220" height="30" fill="#fffef0" stroke="#c7c7b8" stroke-width="0.8"/>
    <text x="595" y="120" class="hand" font-size="11" fill="#222">Slack · project update</text>
    <text x="790" y="120" class="hand" font-size="10" fill="#888" text-anchor="end">2:15 PM</text>
  </g>

  <!-- Timeline entry 2: Teams -->
  <circle cx="565" cy="170" r="4" fill="#8a68b2"/>
  <g transform="rotate(-0.7 690 170)">
    <rect x="580" y="155" width="220" height="30" fill="#fffef0" stroke="#c7c7b8" stroke-width="0.8"/>
    <text x="595" y="175" class="hand" font-size="11" fill="#222">Teams · meeting feedback</text>
    <text x="790" y="175" class="hand" font-size="10" fill="#888" text-anchor="end">3:42 PM</text>
  </g>

  <!-- Timeline entry 3: iMessage -->
  <circle cx="565" cy="225" r="4" fill="#6ca866"/>
  <g transform="rotate(0.5 690 225)">
    <rect x="580" y="210" width="220" height="30" fill="#fffef0" stroke="#c7c7b8" stroke-width="0.8"/>
    <text x="595" y="230" class="hand" font-size="11" fill="#222">iMessage · lunch plans</text>
    <text x="790" y="230" class="hand" font-size="10" fill="#888" text-anchor="end">4:08 PM</text>
  </g>

  <!-- Timeline entry 4: Bloomberg -->
  <circle cx="565" cy="280" r="4" fill="#6f9bc4"/>
  <g transform="rotate(-1 690 280)">
    <rect x="580" y="265" width="220" height="30" fill="#fffef0" stroke="#c7c7b8" stroke-width="0.8"/>
    <text x="595" y="285" class="hand" font-size="11" fill="#222">Bloomberg · market alert</text>
    <text x="790" y="285" class="hand" font-size="10" fill="#888" text-anchor="end">5:20 PM</text>
  </g>

  <!-- Timeline entry 5: Voicemail -->
  <circle cx="565" cy="335" r="4" fill="#d88a8e"/>
  <g transform="rotate(0.6 690 335)">
    <rect x="580" y="320" width="220" height="30" fill="#fffef0" stroke="#c7c7b8" stroke-width="0.8"/>
    <text x="595" y="340" class="hand" font-size="11" fill="#222">Voicemail · callback needed</text>
    <text x="790" y="340" class="hand" font-size="10" fill="#888" text-anchor="end">5:45 PM</text>
  </g>

  <!-- Continuation marker below -->
  <polygon points="561,378 565,388 569,378" fill="#444"/>
  <text x="565" y="406" class="hand" font-size="10" fill="#888" text-anchor="middle" font-style="italic">keeps going…</text>

  <!-- Right-side marginal note -->
  <text x="830" y="192" class="hand" font-size="10" fill="#c00" font-weight="700">← chronological,</text>
  <text x="830" y="207" class="hand" font-size="10" fill="#c00" font-weight="700">not grouped</text>
  <text x="830" y="222" class="hand" font-size="10" fill="#c00" font-weight="700">by app</text>
</svg>
